#!OML:ASF E:\acrobat2\Project_11_07_03\Capture day 1\Session 1\Acrobat.ASF
:FULLY-SPECIFIED
:DEGREES
33
root 8.69491 18.1172 -0.346707 0.527651 -60.1288 3.28567
lowerback -4.91469 2.16968 1.10735
upperback -1.15087 2.86186 -2.41935
thorax 1.74763 1.42975 -2.92571
lowerneck -0.465789 4.30784 2.64249
upperneck 10.3018 5.71988 -1.20539
head 3.53136 2.85642 -0.665663
rclavicle -2.75876e-014 -1.70955e-014
rhumerus -38.8191 -4.94584 -87.4244
rradius 31.5157
rwrist -0.814317
rhand -8.29847 -38.3915
rfingers 7.12502
rthumb 17.6216 -67.6129
lclavicle -2.75876e-014 -1.70955e-014
lhumerus -31.9476 4.18705 78.9844
lradius 17.4153
lwrist 3.99294
lhand -3.17765 -12.4861
lfingers 7.12502
lthumb 22.5435 16.2177
rfemur 9.03142 14.3459 15.8431
rtibia -2.77261
rfoot -24.9208 -23.9434
rtoes 17.555
lfemur 2.77461 -6.48887 -11.0556
ltibia -3.74943
lfoot -11.6431 7.27893
ltoes 35.2632
34
root 8.68857 18.1152 -0.349541 1.33154 -60.0714 2.28345
lowerback -4.86617 2.1379 1.59237
upperback -1.14535 2.79393 -2.20324
thorax 1.73431 1.39864 -2.98139
lowerneck -0.441687 4.31421 2.49019
upperneck 10.235 5.74398 -1.30578
head 3.50203 2.85928 -0.672637
rclavicle -8.05389e-014 -1.19271e-015
rhumerus -38.5537 -6.29551 -86.4766
rradius 30.0832
rwrist 0.517853
rhand -7.62217 -37.8577
rfingers 7.12502
rthumb 18.2724 -67.0195
lclavicle -8.05389e-014 -1.19271e-015
lhumerus -32.1489 4.99588 78.5237
lradius 17.031
lwrist 2.39548
lhand -1.69071 -12.3678
lfingers 7.12502
lthumb 23.97 16.1558
rfemur 9.15272 14.5048 16.5741
rtibia -2.75787
rfoot -25.2731 -24.0389
rtoes 18.3091
lfemur 2.84424 -6.47977 -10.408
ltibia -3.74976
lfoot -11.7171 7.19184
ltoes 36.175
35
root 8.68176 18.113 -0.350564 1.85284 -59.961 1.57081
lowerback -4.80773 2.18671 2.00382
upperback -1.11353 2.83939 -2.10467
thorax 1.75214 1.42445 -3.10916
lowerneck -0.450743 4.23855 2.36469
upperneck 10.1914 5.64489 -1.27988
head 3.48046 2.80677 -0.646369
rclavicle 4.10242e-014 -3.18055e-015
rhumerus -38.4534 -7.81253 -85.4358
rradius 28.7572
rwrist 2.0236
rhand -6.9707 -37.2852
rfingers 7.12502
rthumb 18.899 -66.3871
lclavicle 4.10242e-014 -3.18055e-015
lhumerus -32.1608 5.28207 78.2064
lradius 16.5975
lwrist 1.04879
lhand -0.606824 -12.4164
lfingers 7.12502
lthumb 25.009 15.9666
rfemur 9.32288 14.5883 17.1164
rtibia -2.75262
rfoot -25.4576 -24.2004
rtoes 18.5419
lfemur 2.94043 -6.40904 -9.93545
ltibia -3.75137
lfoot -11.5939 7.16224
ltoes 35.5503
36
root 8.67561 18.1122 -0.35334 1.61595 -59.9135 1.80875
lowerback -4.76248 2.25867 1.86777
upperback -1.12864 2.94236 -2.11845
thorax 1.71245 1.47451 -3.04198
lowerneck -0.640375 4.12333 2.13173
upperneck 10.4054 5.47097 -1.00344
head 3.56878 2.72068 -0.516053
rclavicle -1.29645e-014 1.35174e-014
rhumerus -38.6012 -8.39138 -84.9024
rradius 27.9249
rwrist 1.86185
rhand -7.86931 -38.6353
rfingers 7.12502
rthumb 18.0346 -67.8192
lclavicle -1.29645e-014 1.35174e-014
lhumerus -32.2952 4.71191 78.3657
lradius 16.4243
lwrist 0.449103
lhand -0.000281327 -12.5646
lfingers 7.12502
lthumb 25.5901 15.7362
rfemur 9.39349 14.7366 17.055
rtibia -2.75
rfoot -25.5302 -24.3334
rtoes 18.5753
lfemur 2.96429 -6.30091 -10.0453
ltibia -3.72876
lfoot -11.3869 7.24473
ltoes 33.9977
37
root 8.66837 18.1132 -0.35508 1.54881 -59.8244 1.88453
lowerback -4.79023 2.29357 1.81887
upperback -1.16144 2.98993 -2.09087
thorax 1.69347 1.49727 -2.98249
lowerneck -1.17405 4.05952 1.64696
upperneck 11.2775 5.32602 -0.286917
head 3.93492 2.65269 -0.181373
rclavicle 7.21526e-014 6.36111e-015
rhumerus -38.7406 -8.94187 -84.3085
rradius 26.9987
rwrist 1.91661
rhand -8.55507 -39.152
rfingers 7.12502
rthumb 17.3747 -68.3954
lclavicle 7.21526e-014 6.36111e-015
lhumerus -32.7011 3.05239 79.1393
lradius 16.7284
lwrist 1.28705
lhand 0.323747 -12.6517
lfingers 7.12502
lthumb 25.9004 15.6041
rfemur 9.41756 14.7709 17.0741
rtibia -2.69885
rfoot -25.5987 -24.3956
rtoes 18.5503
lfemur 2.92024 -6.08043 -10.0472
ltibia -3.64792
lfoot -11.1213 7.17799
ltoes 33.1351
38
root 8.65897 18.1153 -0.354952 1.92596 -59.6488 1.44299
lowerback -4.8502 2.29763 2.04104
upperback -1.19027 2.98211 -1.98823
thorax 1.70252 1.49406 -3.00013
lowerneck -1.13353 4.03433 1.7288
upperneck 11.4602 5.30165 -0.431014
head 3.99986 2.63683 -0.242469
rclavicle -4.11174e-014 -8.34896e-015
rhumerus -38.7426 -10.0693 -83.3877
rradius 25.8079
rwrist 3.07335
rhand -8.83317 -39.3744
rfingers 7.12502
rthumb 17.107 -68.6413
lclavicle -4.11174e-014 -8.34896e-015
lhumerus -33.0925 1.47959 79.9038
lradius 17.1368
lwrist 2.36916
lhand 0.528263 -12.5949
lfingers 7.12502
lthumb 26.0963 15.6322
rfemur 9.48538 14.8158 17.4362
rtibia -2.66932
rfoot -26.0101 -24.3795
rtoes 19.5863
lfemur 2.83788 -5.79435 -9.71357
ltibia -3.51838
lfoot -10.8803 6.84939
ltoes 33.6185
39
root 8.64986 18.1131 -0.353152 2.29156 -59.4973 0.928685
lowerback -4.81072 2.31639 2.31867
upperback -1.17852 2.99322 -1.8802
thorax 1.70159 1.50118 -3.04502
lowerneck -1.36286 3.88396 1.67375
upperneck 11.7349 5.10829 -0.525333
head 4.14193 2.53311 -0.263633
rclavicle -5.52249e-014 -1.03368e-014
rhumerus -38.6725 -11.4355 -82.3559
rradius 24.58
rwrist 4.55203
rhand -8.72592 -39.3522
rfingers 7.12502
rthumb 17.2102 -68.6101
lclavicle -5.52249e-014 -1.03368e-014
lhumerus -33.4102 -0.0586763 80.6497
lradius 17.7506
lwrist 3.78818
lhand 0.756694 -12.2695
lfingers 7.12502
lthumb 26.315 15.9251
rfemur 9.64221 14.78 17.8354
rtibia -2.65526
rfoot -26.1893 -24.4359
rtoes 19.8001
lfemur 2.86521 -5.52598 -9.33908
ltibia -3.4185
lfoot -10.6589 6.48401
ltoes 34.2188
